<svg xmlns="http://www.w3.org/2000/svg" width="1000" height="418" viewBox="0 0 1000 418" role="img" font-family="ui-monospace, SFMono-Regular, 'Cascadia Code', Menlo, Consolas, 'DejaVu Sans Mono', monospace" font-size="12">
<defs>
<pattern id="dgrid" width="26" height="26" patternUnits="userSpaceOnUse"><path d="M26 0H0v26" fill="none" stroke="#30363d" stroke-width="1"/></pattern>
<radialGradient id="dglow" cx="50%" cy="0%" r="62%"><stop offset="0" stop-color="#58a6ff" stop-opacity="0.26"/><stop offset="1" stop-color="#58a6ff" stop-opacity="0"/></radialGradient>
<linearGradient id="drule" x1="0" y1="0" x2="1" y2="0"><stop offset="0" stop-color="#58a6ff"/><stop offset="1" stop-color="#58a6ff" stop-opacity="0.12"/></linearGradient>
<linearGradient id="dfade" x1="0" y1="0" x2="1" y2="0"><stop offset="0" stop-color="#0d1117" stop-opacity="0"/><stop offset="0.5" stop-color="#0d1117"/><stop offset="1" stop-color="#0d1117" stop-opacity="0"/></linearGradient>
</defs>
<style>
text { white-space: pre; }
.blink { animation: dblink 2.4s ease-in-out infinite; }
@keyframes dblink { 0%,100% { opacity: 1 } 50% { opacity: 0.25 } }

</style>
<rect width="1000" height="418" fill="#0d1117"/>
<rect width="1000" height="418" fill="url(#dfade)" opacity="0"/><text x="40" y="54" fill="#58a6ff" font-size="10.5" letter-spacing="2">04 / stack</text><text x="40" y="82" fill="#e6edf3" font-size="17" font-weight="600" font-family="system-ui, -apple-system, 'Segoe UI', Roboto, Arial, sans-serif">LANGUAGES BY SIZE ACROSS ALL REPOS</text><text x="960" y="54" fill="#6e7681" font-size="10.5" text-anchor="end">28 repos aggregated</text><text x="40" y="96" fill="#6e7681" font-size="9" letter-spacing="1.6">LANGUAGE</text><text x="250" y="96" fill="#6e7681" font-size="9" letter-spacing="1.6">SHARE OF BYTES</text><text x="915" y="96" fill="#6e7681" font-size="9" text-anchor="end" letter-spacing="1.6">SHARE</text><text x="960" y="96" fill="#6e7681" font-size="9" text-anchor="end" letter-spacing="1.6">SIZE</text><text x="40" y="127" fill="#e6edf3" font-size="11.5">HTML</text><rect x="250" y="119" width="520" height="12" rx="6" fill="#1c2128"/><rect x="250" y="119" width="459.16" height="12" rx="6" fill="#ffa657" opacity="0.9">
<animate attributeName="width" from="0" to="459.16" dur="0.8s" begin="0s" fill="freeze" calcMode="spline" keySplines="0.2 0.8 0.2 1" keyTimes="0;1"/></rect><text x="915" y="127" fill="#ffa657" font-size="10.5" text-anchor="end">88.3%</text><text x="960" y="127" fill="#6e7681" font-size="9.5" text-anchor="end">22.2MB</text><text x="40" y="155" fill="#e6edf3" font-size="11.5">JavaScript</text><rect x="250" y="147" width="520" height="12" rx="6" fill="#1c2128"/><rect x="250" y="147" width="35.88" height="12" rx="6" fill="#d29922" opacity="0.9">
<animate attributeName="width" from="0" to="35.88" dur="0.8s" begin="0.04s" fill="freeze" calcMode="spline" keySplines="0.2 0.8 0.2 1" keyTimes="0;1"/></rect><text x="915" y="155" fill="#d29922" font-size="10.5" text-anchor="end">6.9%</text><text x="960" y="155" fill="#6e7681" font-size="9.5" text-anchor="end">1.7MB</text><text x="40" y="183" fill="#e6edf3" font-size="11.5">Python</text><rect x="250" y="175" width="520" height="12" rx="6" fill="#1c2128"/><rect x="250" y="175" width="10.92" height="12" rx="6" fill="#3fb950" opacity="0.9">
<animate attributeName="width" from="0" to="10.92" dur="0.8s" begin="0.08s" fill="freeze" calcMode="spline" keySplines="0.2 0.8 0.2 1" keyTimes="0;1"/></rect><text x="915" y="183" fill="#3fb950" font-size="10.5" text-anchor="end">2.1%</text><text x="960" y="183" fill="#6e7681" font-size="9.5" text-anchor="end">530KB</text><text x="40" y="211" fill="#e6edf3" font-size="11.5">CSS</text><rect x="250" y="203" width="520" height="12" rx="6" fill="#1c2128"/><rect x="250" y="203" width="8.32" height="12" rx="6" fill="#f778ba" opacity="0.9">
<animate attributeName="width" from="0" to="8.32" dur="0.8s" begin="0.12s" fill="freeze" calcMode="spline" keySplines="0.2 0.8 0.2 1" keyTimes="0;1"/></rect><text x="915" y="211" fill="#f778ba" font-size="10.5" text-anchor="end">1.6%</text><text x="960" y="211" fill="#6e7681" font-size="9.5" text-anchor="end">426KB</text><text x="40" y="239" fill="#e6edf3" font-size="11.5">TypeScript</text><rect x="250" y="231" width="520" height="12" rx="6" fill="#1c2128"/><rect x="250" y="231" width="4.68" height="12" rx="6" fill="#58a6ff" opacity="0.9">
<animate attributeName="width" from="0" to="4.68" dur="0.8s" begin="0.16s" fill="freeze" calcMode="spline" keySplines="0.2 0.8 0.2 1" keyTimes="0;1"/></rect><text x="915" y="239" fill="#58a6ff" font-size="10.5" text-anchor="end">0.9%</text><text x="960" y="239" fill="#6e7681" font-size="9.5" text-anchor="end">244KB</text><text x="40" y="267" fill="#e6edf3" font-size="11.5">Rust</text><rect x="250" y="259" width="520" height="12" rx="6" fill="#1c2128"/><rect x="250" y="259" width="4" height="12" rx="6" fill="#f85149" opacity="0.9">
<animate attributeName="width" from="0" to="4" dur="0.8s" begin="0.2s" fill="freeze" calcMode="spline" keySplines="0.2 0.8 0.2 1" keyTimes="0;1"/></rect><text x="915" y="267" fill="#f85149" font-size="10.5" text-anchor="end">0.1%</text><text x="960" y="267" fill="#6e7681" font-size="9.5" text-anchor="end">16KB</text><text x="40" y="295" fill="#e6edf3" font-size="11.5">Dockerfile</text><rect x="250" y="287" width="520" height="12" rx="6" fill="#1c2128"/><text x="915" y="295" fill="#39c5cf" font-size="10.5" text-anchor="end">0%</text><text x="960" y="295" fill="#6e7681" font-size="9.5" text-anchor="end">10KB</text><text x="40" y="323" fill="#e6edf3" font-size="11.5">PowerShell</text><rect x="250" y="315" width="520" height="12" rx="6" fill="#1c2128"/><text x="915" y="323" fill="#bc8cff" font-size="10.5" text-anchor="end">0%</text><text x="960" y="323" fill="#6e7681" font-size="9.5" text-anchor="end">7KB</text><text x="40" y="351" fill="#e6edf3" font-size="11.5">Batchfile</text><rect x="250" y="343" width="520" height="12" rx="6" fill="#1c2128"/><text x="915" y="351" fill="#58a6ff" font-size="10.5" text-anchor="end">0%</text><text x="960" y="351" fill="#6e7681" font-size="9.5" text-anchor="end">3KB</text><text x="40" y="379" fill="#e6edf3" font-size="11.5">Shell</text><rect x="250" y="371" width="520" height="12" rx="6" fill="#1c2128"/><text x="915" y="379" fill="#3fb950" font-size="10.5" text-anchor="end">0%</text><text x="960" y="379" fill="#6e7681" font-size="9.5" text-anchor="end">276B</text>
</svg>